<svg width="80" height="80" viewBox="0 0 80 80" fill="none" xmlns="http://www.w3.org/2000/svg">
<rect width="80" height="80" rx="13.3333" fill="#FF4141"/>
<path d="M17.312 58.68C16.48 58.68 15.7867 58.4027 15.232 57.848C14.6987 57.3147 14.432 56.632 14.432 55.8V29.88C14.432 29.048 14.6987 28.3653 15.232 27.832C15.7867 27.2773 16.48 27 17.312 27H22.528V29.816H18.496C17.92 29.816 17.632 30.136 17.632 30.776V54.904C17.632 55.544 17.92 55.864 18.496 55.864H22.528V58.68H17.312Z" fill="#313131"/>
<path d="M56.544 58.68V55.864H60.608C61.184 55.864 61.472 55.544 61.472 54.904V30.776C61.472 30.136 61.184 29.816 60.608 29.816H56.544V27H61.76C62.6133 27 63.3067 27.2773 63.84 27.832C64.3947 28.3653 64.672 29.048 64.672 29.88V55.8C64.672 56.632 64.3947 57.3147 63.84 57.848C63.3067 58.4027 62.6133 58.68 61.76 58.68H56.544Z" fill="#313131"/>
<circle cx="39.666" cy="42.333" r="15" fill="#313131"/>
</svg>
