<svg width="11" height="11" viewBox="0 0 11 11" fill="none" xmlns="http://www.w3.org/2000/svg">
<mask id="mask0_854_571" style="mask-type:alpha" maskUnits="userSpaceOnUse" x="0" y="0" width="12" height="11">
<rect x="0.654297" y="0.562744" width="10.3537" height="10.3537" fill="#D9D9D9"/>
</mask>
<g mask="url(#mask0_854_571)">
<path d="M5.22703 7.40197L8.12736 4.50164L7.67277 4.04705L5.22703 6.49278L3.99753 5.26328L3.54294 5.71787L5.22703 7.40197ZM2.94393 9.40638C2.726 9.40638 2.54154 9.33088 2.39055 9.17989C2.23956 9.0289 2.16406 8.84444 2.16406 8.62651V2.85238C2.16406 2.63445 2.23956 2.44999 2.39055 2.299C2.54154 2.14801 2.726 2.07251 2.94393 2.07251H8.71806C8.93599 2.07251 9.12045 2.14801 9.27144 2.299C9.42244 2.44999 9.49793 2.63445 9.49793 2.85238V8.62651C9.49793 8.84444 9.42244 9.0289 9.27144 9.17989C9.12045 9.33088 8.93599 9.40638 8.71806 9.40638H2.94393ZM2.94393 8.75927H8.71806C8.75128 8.75927 8.78169 8.74543 8.8093 8.71775C8.83698 8.69014 8.85083 8.65973 8.85083 8.62651V2.85238C8.85083 2.81916 8.83698 2.78875 8.8093 2.76114C8.78169 2.73346 8.75128 2.71962 8.71806 2.71962H2.94393C2.91072 2.71962 2.8803 2.73346 2.85269 2.76114C2.82501 2.78875 2.81117 2.81916 2.81117 2.85238V8.62651C2.81117 8.65973 2.82501 8.69014 2.85269 8.71775C2.8803 8.74543 2.91072 8.75927 2.94393 8.75927Z" fill="#757575"/>
</g>
</svg>
